<svg width="121" height="394" viewBox="0 0 121 394" fill="none" xmlns="http://www.w3.org/2000/svg">
<g id="girl">
<path id="Vector" d="M99.864 74.1586C105.817 74.1586 110.642 69.333 110.642 63.3803C110.642 57.4276 105.817 52.602 99.864 52.602C93.9113 52.602 89.0857 57.4276 89.0857 63.3803C89.0857 69.333 93.9113 74.1586 99.864 74.1586Z" fill="#6C63FF"/>
<path id="Vector_2" d="M102.867 52.8987C104.732 52.8989 106.566 53.3832 108.188 54.3041C109.81 55.2251 111.165 56.5512 112.121 58.1528C113.077 59.7545 113.602 61.5768 113.643 63.4417C113.684 65.3066 113.24 67.1502 112.355 68.7922C113.29 67.6231 113.97 66.2721 114.354 64.8253C114.737 63.3786 114.815 61.8678 114.582 60.3893C114.35 58.9108 113.812 57.497 113.002 56.2379C112.193 54.9789 111.13 53.9022 109.882 53.0766C108.633 52.251 107.227 51.6945 105.751 51.4425C104.276 51.1906 102.764 51.2488 101.313 51.6133C99.8612 51.9779 98.5014 52.6409 97.3202 53.56C96.139 54.4791 95.1621 55.6343 94.452 56.9518C95.4595 55.6868 96.7394 54.6655 98.1963 53.9637C99.6533 53.262 101.25 52.8979 102.867 52.8987V52.8987Z" fill="#6C63FF"/>
<path id="Vector_3" d="M79.7232 63.3575C97.2092 63.3575 111.384 49.1822 111.384 31.6962C111.384 14.2102 97.2092 0.0349731 79.7232 0.0349731C62.2372 0.0349731 48.062 14.2102 48.062 31.6962C48.062 49.1822 62.2372 63.3575 79.7232 63.3575Z" fill="#6C63FF"/>
<path id="Vector_4" d="M54.8743 12.0519C60.3298 5.91643 67.9556 2.14055 76.1423 1.52116C84.3291 0.901772 92.4362 3.48733 98.7527 8.73213C98.4938 8.48602 98.2377 8.23791 97.9687 7.99875C91.6913 2.43014 83.4601 -0.418755 75.0835 0.0779703C66.7069 0.574695 58.8701 4.37642 53.2949 10.6479C47.7197 16.9193 44.8621 25.1475 45.35 33.5246C45.8379 41.9017 49.6314 49.7426 55.897 55.3244C56.166 55.5635 56.4424 55.7889 56.7172 56.0171C50.7686 50.3585 47.2512 42.61 46.9073 34.4071C46.5635 26.2041 49.4201 18.1885 54.8743 12.0519V12.0519Z" fill="#6C63FF"/>
<path id="Vector_5" d="M110.254 112.406L115.124 140.005L120.806 194.391C120.806 194.391 122.43 216.307 115.124 217.119C107.819 217.931 109.442 192.767 109.442 192.767L101.325 146.499L98.0781 118.088L110.254 112.406Z" fill="#FBBEBE"/>
<path id="Vector_6" d="M80.22 58.0203C90.9793 58.0203 99.7015 49.2982 99.7015 38.5389C99.7015 27.7795 90.9793 19.0574 80.22 19.0574C69.4607 19.0574 60.7385 27.7795 60.7385 38.5389C60.7385 49.2982 69.4607 58.0203 80.22 58.0203Z" fill="#FBBEBE"/>
<path id="Vector_7" d="M64.797 46.656L61.55 65.326L82.655 70.196V52.338L64.797 46.656Z" fill="#FBBEBE"/>
<path id="Vector_8" d="M14.47 319.397L12.035 335.631L21.776 336.443L27.458 322.644L14.47 319.397Z" fill="#FBBEBE"/>
<path id="Vector_9" d="M89.961 321.832L92.396 334.82H102.948V322.644L89.961 321.832Z" fill="#FBBEBE"/>
<path id="Vector_10" d="M97.2663 140.005L43.6922 148.122L40.4453 186.273L33.9515 241.471L10.4114 321.832L33.9515 324.267L76.1614 216.307L86.7139 325.079H111.066L112.689 213.872C112.689 213.872 113.501 152.181 100.513 148.122L97.2663 140.005Z" fill="black"/>
<path id="Vector_11" d="M24.2108 334.008L10.4114 331.573L4.72926 359.172C4.72926 359.172 -5.82321 396.511 7.97618 393.264C21.7756 390.017 19.3404 359.172 19.3404 359.172L24.2108 334.008Z" fill="black"/>
<path id="Vector_12" d="M89.9608 334.008L103.76 331.573L109.442 359.172C109.442 359.172 119.995 396.511 106.195 393.264C92.396 390.017 94.8311 359.172 94.8311 359.172L89.9608 334.008Z" fill="black"/>
<path id="Vector_13" d="M22.5873 100.23C22.5873 100.23 16.0935 134.323 19.3404 142.44C22.5873 150.557 41.2571 178.968 41.2571 178.968L46.9392 166.792L30.7046 135.135L36.3867 102.665L22.5873 100.23Z" fill="#FBBEBE"/>
<path id="Vector_14" d="M86.7138 76.6901L85.0904 64.5141C85.0904 64.5141 64.7972 61.2672 61.5502 55.5851L55.8681 65.3259L37.1984 69.3845C37.1984 69.3845 26.6459 69.3845 25.8342 77.5018C25.0225 85.6191 20.1521 101.854 20.1521 101.854L34.7632 106.724L46.1274 148.934L94.8311 141.628L92.396 119.712L94.8312 114.03L97.2663 120.523L112.689 117.276C112.689 117.276 113.501 88.0543 98.0781 83.1839L86.7138 76.6901Z" fill="black"/>
<path id="Vector_15" d="M62.014 17.207V37.599H66.737L72.747 31.16L71.942 37.599H92.817L91.529 31.16L94.105 37.599H97.432V17.207H62.014Z" fill="#6C63FF"/>
</g>
</svg>
