<svg width="59" height="101" viewBox="0 0 59 101" fill="none" xmlns="http://www.w3.org/2000/svg">
<g id="right-bl">
<path id="Vector" d="M29.3781 57.8283C45.3356 57.8283 58.2717 44.8922 58.2717 28.9347C58.2717 12.9772 45.3356 0.0410461 29.3781 0.0410461C13.4205 0.0410461 0.484436 12.9772 0.484436 28.9347C0.484436 44.8922 13.4205 57.8283 29.3781 57.8283Z" fill="#6C63FF"/>
<path id="Vector_2" d="M41.3916 70.0817C43.4226 70.0817 45.069 68.4353 45.069 66.4043C45.069 64.3733 43.4226 62.7269 41.3916 62.7269C39.3606 62.7269 37.7142 64.3733 37.7142 66.4043C37.7142 68.4353 39.3606 70.0817 41.3916 70.0817Z" fill="black"/>
<path id="Vector_3" d="M30.878 100.354H27.878L29.378 29.354L30.878 100.354Z" fill="black"/>
<path id="Vector_4" d="M30 91.354L28.538 90.23L42.865 63.829L30 91.354Z" fill="black"/>
</g>
</svg>
