<svg width="612" height="370" viewBox="0 0 612 370" fill="none" xmlns="http://www.w3.org/2000/svg">
<path id="text-next" d="M144.528 96.829H259.747V105.987H155.09V174.911H253.506V184.069H155.09V259.741H260.948V268.898H144.529L144.528 96.829ZM270.069 96.829H282.311L336.56 172.501L392.009 96.829L467.429 0.708252L343.521 180.454L407.371 268.898H394.649L336.56 188.407L278.23 268.898H265.748L330.079 180.454L270.069 96.829ZM411.932 105.987V96.829H543.234V105.987H482.744V268.898H472.182V105.987H411.932ZM0.384918 96.829H13.5871L195.637 369.25L120.405 268.898L11.4267 109.843L10.9467 268.898H0.384918V96.829ZM542.169 256.977C541.409 256.988 540.662 256.773 540.025 256.359C539.387 255.944 538.887 255.35 538.588 254.65C538.289 253.951 538.205 253.179 538.347 252.431C538.488 251.684 538.849 250.996 539.382 250.454C539.916 249.912 540.599 249.542 541.344 249.389C542.089 249.237 542.863 249.309 543.566 249.598C544.27 249.886 544.872 250.377 545.296 251.009C545.719 251.641 545.946 252.384 545.946 253.144C545.959 253.647 545.871 254.146 545.687 254.614C545.503 255.081 545.226 255.507 544.873 255.864C544.521 256.222 544.1 256.505 543.635 256.696C543.17 256.888 542.672 256.983 542.169 256.977V256.977ZM552.548 246.894H558.199C558.276 249.955 560.511 252.013 563.799 252.013C567.473 252.013 569.553 249.801 569.553 245.659V219.423H575.308V245.685C575.308 253.144 570.992 257.44 563.851 257.44C557.146 257.44 552.548 253.273 552.548 246.894V246.894ZM582.835 246.56H588.537C589.025 250.083 592.468 252.321 597.426 252.321C602.05 252.321 605.44 249.929 605.44 246.637C605.44 243.807 603.283 242.11 598.376 240.952L593.598 239.795C586.893 238.226 583.836 234.985 583.836 229.532C583.836 222.921 589.231 218.523 597.323 218.523C604.85 218.523 610.347 222.921 610.681 229.172H605.081C604.541 225.751 601.561 223.616 597.246 223.616C592.699 223.616 589.668 225.802 589.668 229.146C589.668 231.795 591.62 233.313 596.449 234.444L600.534 235.448C608.138 237.222 611.272 240.309 611.272 245.891C611.272 252.99 605.774 257.44 596.989 257.44C588.769 257.44 583.246 253.196 582.835 246.56V246.56Z" fill="black"/>
</svg>
